<svg width="22.000000" height="22.000000" viewBox="0 0 22 22" fill="none" xmlns="http://www.w3.org/2000/svg" xmlns:xlink="http://www.w3.org/1999/xlink">
	<desc>
			Created with Pixso.
	</desc>
	<defs>
		<clipPath id="clip3_1018">
			<rect id="SVG" width="22.000000" height="22.000000" fill="white" fill-opacity="0"/>
		</clipPath>
	</defs>
	<g clip-path="url(#clip3_1018)">
		<path id="Vector" d="M18.3334 15.5834C18.5764 15.5834 18.8096 15.6799 18.9816 15.8518C19.1534 16.0238 19.25 16.257 19.25 16.5C19.25 16.7432 19.1534 16.9763 18.9816 17.1482C18.8096 17.3202 18.5764 17.4167 18.3334 17.4167L3.66663 17.4167C3.42358 17.4167 3.19043 17.3202 3.01843 17.1482C2.84656 16.9763 2.75 16.7432 2.75 16.5C2.75 16.257 2.84656 16.0238 3.01843 15.8518C3.19043 15.6799 3.42358 15.5834 3.66663 15.5834L18.3334 15.5834ZM18.3334 10.0834C18.5764 10.0834 18.8096 10.1799 18.9816 10.3518C19.1534 10.5238 19.25 10.757 19.25 11C19.25 11.2432 19.1534 11.4763 18.9816 11.6482C18.8096 11.8202 18.5764 11.9167 18.3334 11.9167L3.66663 11.9167C3.42358 11.9167 3.19043 11.8202 3.01843 11.6482C2.84656 11.4763 2.75 11.2432 2.75 11C2.75 10.757 2.84656 10.5238 3.01843 10.3518C3.19043 10.1799 3.42358 10.0834 3.66663 10.0834L18.3334 10.0834ZM3.66663 6.41675C3.42358 6.41675 3.19043 6.32019 3.01843 6.14819C2.84656 5.97632 2.75 5.74316 2.75 5.5C2.75 5.25696 2.84656 5.0238 3.01843 4.85181C3.19043 4.67993 3.42358 4.58337 3.66663 4.58337L18.3334 4.58337C18.5764 4.58337 18.8096 4.67993 18.9816 4.85181C19.1534 5.0238 19.25 5.25696 19.25 5.5C19.25 5.74316 19.1534 5.97632 18.9816 6.14819C18.8096 6.32019 18.5764 6.41675 18.3334 6.41675L3.66663 6.41675Z" fill="#212325" fill-opacity="1.000000" fill-rule="evenodd"/>
	</g>
</svg>
