<svg width="24.000000" height="24.000000" viewBox="0 0 24 24" fill="none" xmlns="http://www.w3.org/2000/svg" xmlns:xlink="http://www.w3.org/1999/xlink">
	<desc>
			Created with Pixso.
	</desc>
	<defs/>
	<mask id="mask2001_5867" mask-type="alpha" maskUnits="userSpaceOnUse" x="0.000000" y="0.000000" width="24.000000" height="24.000000">
		<rect id="Bounding box" width="24.000000" height="24.000000" fill="#D9D9D9" fill-opacity="1.000000"/>
	</mask>
	<g mask="url(#mask2001_5867)">
		<path id="contact_page" d="M12 14C12.55 14 13.0209 13.8042 13.4125 13.4125C13.8042 13.0209 14 12.55 14 12C14 11.45 13.8042 10.9791 13.4125 10.5875C13.0209 10.1958 12.55 10 12 10C11.45 10 10.9791 10.1958 10.5875 10.5875C10.1958 10.9791 10 11.45 10 12C10 12.55 10.1958 13.0209 10.5875 13.4125C10.9791 13.8042 11.45 14 12 14ZM8 18L16 18L16 17.425C16 17.025 15.8917 16.6583 15.675 16.325C15.4584 15.9917 15.1583 15.7417 14.775 15.575C14.3417 15.3917 13.8959 15.25 13.4375 15.15C12.9791 15.05 12.5 15 12 15C11.5 15 11.0209 15.05 10.5625 15.15C10.1041 15.25 9.65833 15.3917 9.22498 15.575C8.84167 15.7417 8.54163 15.9917 8.32495 16.325C8.10828 16.6583 8 17.025 8 17.425L8 18ZM18 22L6 22C5.44995 22 4.97913 21.8042 4.58752 21.4125C4.1958 21.0209 4 20.55 4 20L4 4C4 3.44995 4.1958 2.97913 4.58752 2.58752C4.97913 2.1958 5.44995 2 6 2L14 2L20 8L20 20C20 20.55 19.8042 21.0209 19.4125 21.4125C19.0209 21.8042 18.55 22 18 22ZM18 20L18 8.84998L13.15 4L6 4L6 20L18 20Z" fill="#0D3450" fill-opacity="1.000000" fill-rule="nonzero"/>
	</g>
</svg>
