<svg width="20.000000" height="18.006836" viewBox="0 0 20 18.0068" fill="none" xmlns="http://www.w3.org/2000/svg" xmlns:xlink="http://www.w3.org/1999/xlink">
	<desc>
			Created with Pixso.
	</desc>
	<defs/>
	<path id="favorite" d="M9.33246 17.7515L8.54999 17.05C6.86664 15.5333 5.47498 14.225 4.375 13.125C3.27502 12.025 2.40002 11.0375 1.75 10.1625C1.09998 9.28748 0.645813 8.48328 0.387512 7.75C0.12915 7.01672 0 6.26672 0 5.5C0 3.93335 0.525024 2.625 1.57501 1.57495C2.625 0.525024 3.93335 0 5.5 0C6.36664 0 7.19165 0.18335 7.97498 0.550049C8.40118 0.749512 8.79529 0.993408 9.15735 1.28162C9.63971 1.66577 10.3603 1.66577 10.8427 1.28162C11.2047 0.993408 11.5988 0.749512 12.025 0.550049C12.8083 0.18335 13.6334 0 14.5 0C16.0667 0 17.375 0.525024 18.425 1.57495C19.475 2.625 20 3.93335 20 5.5C20 6.26672 19.8708 7.01672 19.6125 7.75C19.3542 8.48328 18.9 9.28748 18.25 10.1625C17.6 11.0375 16.725 12.025 15.625 13.125C14.525 14.225 13.1334 15.5333 11.45 17.05L10.6675 17.7515C10.2877 18.092 9.71234 18.092 9.33246 17.7515ZM10.6658 15.0505C11.9689 13.871 13.0637 12.8417 13.95 11.9625C14.9833 10.9375 15.8 10.0458 16.4 9.28748C17 8.52917 17.4167 7.85413 17.65 7.26245C17.8834 6.67078 18 6.08337 18 5.5C18 4.5 17.6667 3.66663 17 3C16.3333 2.33337 15.5 2 14.5 2C13.7167 2 12.9916 2.22083 12.325 2.66248C11.8742 2.96118 11.5186 3.31506 11.2584 3.72424C11.033 4.07849 10.6708 4.34998 10.251 4.34998L9.74896 4.34998C9.32916 4.34998 8.96698 4.07849 8.74164 3.72424C8.48138 3.31506 8.12579 2.96118 7.67499 2.66248C7.00836 2.22083 6.28333 2 5.5 2C4.5 2 3.66669 2.33337 3 3C2.33331 3.66663 2 4.5 2 5.5C2 6.08337 2.11664 6.67078 2.34998 7.26245C2.58331 7.85413 3 8.52917 3.59998 9.28748C4.20001 10.0458 5.01666 10.9375 6.04999 11.9625C6.93628 12.8417 8.03107 13.871 9.33423 15.0505C9.71228 15.3927 10.2877 15.3927 10.6658 15.0505Z" fill="#212325" fill-opacity="1.000000" fill-rule="evenodd"/>
</svg>
