<svg width="20.000000" height="20.000000" viewBox="0 0 20 20" fill="none" xmlns="http://www.w3.org/2000/svg" xmlns:xlink="http://www.w3.org/1999/xlink">
	<desc>
			Created with Pixso.
	</desc>
	<defs/>
	<mask id="mask48_3557" mask-type="alpha" maskUnits="userSpaceOnUse" x="0.000000" y="0.000000" width="20.000000" height="20.000000">
		<rect id="Bounding box" width="20.000000" height="20.000000" fill="#D9D9D9" fill-opacity="1.000000"/>
	</mask>
	<g mask="url(#mask48_3557)">
		<path id="local_mall" d="M4.16663 18.3337C3.70837 18.3337 3.31592 18.1705 2.98962 17.8441C2.66321 17.5178 2.5 17.1254 2.5 16.6671L2.5 6.66711C2.5 6.20874 2.66321 5.81641 2.98962 5.48999C3.31592 5.16357 3.70837 5.00037 4.16663 5.00037L5.83337 5.00037C5.83337 3.84766 6.23962 2.86499 7.05212 2.05249C7.86462 1.23999 8.84717 0.83374 10 0.83374C11.1528 0.83374 12.1354 1.23999 12.9479 2.05249C13.7604 2.86499 14.1666 3.84766 14.1666 5.00037L15.8334 5.00037C16.2916 5.00037 16.6841 5.16357 17.0104 5.48999C17.3368 5.81641 17.5 6.20874 17.5 6.66711L17.5 16.6671C17.5 17.1254 17.3368 17.5178 17.0104 17.8441C16.6841 18.1705 16.2916 18.3337 15.8334 18.3337L4.16663 18.3337ZM4.16663 16.6671L15.8334 16.6671L15.8334 6.66711L4.16663 6.66711L4.16663 16.6671ZM10 11.6671C11.1528 11.6671 12.1354 11.2609 12.9479 10.4484C13.7604 9.63586 14.1666 8.6532 14.1666 7.50037L12.5 7.50037C12.5 8.19482 12.257 8.78516 11.7709 9.27124C11.2847 9.75732 10.6945 10.0004 10 10.0004C9.30554 10.0004 8.71533 9.75732 8.22913 9.27124C7.74304 8.78516 7.5 8.19482 7.5 7.50037L5.83337 7.50037C5.83337 8.6532 6.23962 9.63586 7.05212 10.4484C7.86462 11.2609 8.84717 11.6671 10 11.6671ZM7.5 5.00037L12.5 5.00037C12.5 4.30591 12.257 3.7157 11.7709 3.22961C11.2847 2.74341 10.6945 2.50037 10 2.50037C9.30554 2.50037 8.71533 2.74341 8.22913 3.22961C7.74304 3.7157 7.5 4.30591 7.5 5.00037Z" fill="#1C1B1F" fill-opacity="1.000000" fill-rule="nonzero"/>
	</g>
</svg>
