<svg width="20.000000" height="20.000000" viewBox="0 0 20 20" fill="none" xmlns="http://www.w3.org/2000/svg" xmlns:xlink="http://www.w3.org/1999/xlink">
	<desc>
			Created with Pixso.
	</desc>
	<defs/>
	<mask id="mask48_3572" mask-type="alpha" maskUnits="userSpaceOnUse" x="0.000000" y="0.000000" width="20.000000" height="20.000000">
		<rect id="Bounding box" width="20.000000" height="20.000000" fill="#D9D9D9" fill-opacity="1.000000"/>
	</mask>
	<g mask="url(#mask48_3572)">
		<path id="settings" d="M7.7085 18.3334L7.37512 15.6667C7.19458 15.5973 7.02441 15.5139 6.86475 15.4167C6.70496 15.3196 6.54871 15.2153 6.396 15.1042L3.91675 16.1459L1.62512 12.1876L3.771 10.5626C3.75708 10.4653 3.75012 10.3716 3.75012 10.2814L3.75012 9.71887C3.75012 9.62854 3.75708 9.53479 3.771 9.43762L1.62512 7.81262L3.91675 3.85425L6.396 4.89587C6.54871 4.78479 6.7085 4.68066 6.87512 4.58337C7.04175 4.48621 7.2085 4.40283 7.37512 4.33337L7.7085 1.66675L12.2917 1.66675L12.6251 4.33337C12.8057 4.40283 12.9758 4.48621 13.1355 4.58337C13.2953 4.68066 13.4515 4.78479 13.6042 4.89587L16.0835 3.85425L18.3751 7.81262L16.2292 9.43762C16.2432 9.53479 16.2501 9.62854 16.2501 9.71887L16.2501 10.2814C16.2501 10.3716 16.2362 10.4653 16.2085 10.5626L18.3542 12.1876L16.0626 16.1459L13.6042 15.1042C13.4515 15.2153 13.2917 15.3196 13.1251 15.4167C12.9585 15.5139 12.7917 15.5973 12.6251 15.6667L12.2917 18.3334L7.7085 18.3334ZM10.0417 12.9167C10.8473 12.9167 11.5348 12.6321 12.1042 12.0626C12.6737 11.4932 12.9585 10.8057 12.9585 10.0001C12.9585 9.19458 12.6737 8.50708 12.1042 7.93762C11.5348 7.36816 10.8473 7.08337 10.0417 7.08337C9.22229 7.08337 8.53137 7.36816 7.96887 7.93762C7.40637 8.50708 7.12512 9.19458 7.12512 10.0001C7.12512 10.8057 7.40637 11.4932 7.96887 12.0626C8.53137 12.6321 9.22229 12.9167 10.0417 12.9167ZM10.0417 11.2501C9.69458 11.2501 9.39941 11.1285 9.15637 10.8855C8.91333 10.6425 8.79175 10.3473 8.79175 10.0001C8.79175 9.65283 8.91333 9.35767 9.15637 9.11462C9.39941 8.87158 9.69458 8.75012 10.0417 8.75012C10.389 8.75012 10.6842 8.87158 10.9272 9.11462C11.1703 9.35767 11.2917 9.65283 11.2917 10.0001C11.2917 10.3473 11.1703 10.6425 10.9272 10.8855C10.6842 11.1285 10.389 11.2501 10.0417 11.2501ZM9.16675 16.6667L10.8126 16.6667L11.1042 14.4584C11.5348 14.3473 11.9342 14.1841 12.3022 13.9689C12.6703 13.7535 13.0071 13.4932 13.3126 13.1876L15.3751 14.0417L16.1876 12.6251L14.396 11.2709C14.4655 11.0764 14.514 10.8716 14.5417 10.6564C14.5696 10.441 14.5835 10.2223 14.5835 10.0001C14.5835 9.77783 14.5696 9.55908 14.5417 9.34387C14.514 9.12854 14.4655 8.92371 14.396 8.72925L16.1876 7.37512L15.3751 5.95837L13.3126 6.83337C13.0071 6.51392 12.6703 6.24658 12.3022 6.03137C11.9342 5.81604 11.5348 5.65283 11.1042 5.54175L10.8335 3.33337L9.18762 3.33337L8.896 5.54175C8.46545 5.65283 8.06604 5.81604 7.698 6.03137C7.32996 6.24658 6.99316 6.50708 6.68762 6.81262L4.62512 5.95837L3.81262 7.37512L5.60425 8.70837C5.53479 8.91675 5.48621 9.12512 5.4585 9.33337C5.43066 9.54175 5.41675 9.76392 5.41675 10.0001C5.41675 10.2223 5.43066 10.4376 5.4585 10.6459C5.48621 10.8542 5.53479 11.0626 5.60425 11.2709L3.81262 12.6251L4.62512 14.0417L6.68762 13.1667C6.99316 13.4862 7.32996 13.7535 7.698 13.9689C8.06604 14.1841 8.46545 14.3473 8.896 14.4584L9.16675 16.6667Z" fill="#1C1B1F" fill-opacity="1.000000" fill-rule="nonzero"/>
	</g>
</svg>
