<svg width="20.000000" height="20.000000" viewBox="0 0 20 20" fill="none" xmlns="http://www.w3.org/2000/svg" xmlns:xlink="http://www.w3.org/1999/xlink">
	<desc>
			Created with Pixso.
	</desc>
	<defs/>
	<mask id="mask48_3567" mask-type="alpha" maskUnits="userSpaceOnUse" x="0.000000" y="0.000000" width="20.000000" height="20.000000">
		<rect id="Bounding box" width="20.000000" height="20.000000" fill="#D9D9D9" fill-opacity="1.000000"/>
	</mask>
	<g mask="url(#mask48_3567)">
		<path id="support" d="M10 18.3333C8.84717 18.3333 7.76379 18.1145 6.75 17.677C5.73608 17.2395 4.85413 16.6458 4.10413 15.8958C3.35413 15.1458 2.76038 14.2638 2.32288 13.25C1.88538 12.2361 1.66663 11.1527 1.66663 10C1.66663 8.84717 1.88538 7.76379 2.32288 6.75C2.76038 5.73608 3.35413 4.85413 4.10413 4.10413C4.85413 3.35413 5.73608 2.76038 6.75 2.32288C7.76379 1.88538 8.84717 1.66663 10 1.66663C11.1527 1.66663 12.2361 1.88538 13.25 2.32288C14.2638 2.76038 15.1458 3.35413 15.8958 4.10413C16.6458 4.85413 17.2395 5.73608 17.677 6.75C18.1145 7.76379 18.3333 8.84717 18.3333 10C18.3333 11.1527 18.1145 12.2361 17.677 13.25C17.2395 14.2638 16.6458 15.1458 15.8958 15.8958C15.1458 16.6458 14.2638 17.2395 13.25 17.677C12.2361 18.1145 11.1527 18.3333 10 18.3333ZM7.58325 16.2083L8.58325 13.9166C8 13.7083 7.49646 13.3854 7.07288 12.9479C6.64929 12.5104 6.31946 12 6.08325 11.4166L3.79163 12.375C4.11108 13.2638 4.60413 14.0416 5.27075 14.7083C5.9375 15.375 6.70825 15.875 7.58325 16.2083ZM6.08325 8.58325C6.31946 8 6.64929 7.4895 7.07288 7.052C7.49646 6.6145 8 6.29163 8.58325 6.08325L7.625 3.79163C6.73608 4.125 5.95825 4.625 5.29163 5.29163C4.625 5.95825 4.125 6.73608 3.79163 7.625L6.08325 8.58325ZM10 12.5C10.6945 12.5 11.2847 12.257 11.7708 11.7708C12.257 11.2847 12.5 10.6945 12.5 10C12.5 9.30554 12.257 8.71521 11.7708 8.22913C11.2847 7.74304 10.6945 7.5 10 7.5C9.30554 7.5 8.71521 7.74304 8.22913 8.22913C7.74304 8.71521 7.5 9.30554 7.5 10C7.5 10.6945 7.74304 11.2847 8.22913 11.7708C8.71521 12.257 9.30554 12.5 10 12.5ZM12.4166 16.2083C13.2916 15.875 14.059 15.3784 14.7188 14.7188C15.3784 14.059 15.875 13.2916 16.2083 12.4166L13.9166 11.4166C13.7083 12 13.3888 12.5034 12.9583 12.927C12.5277 13.3507 12.0277 13.6805 11.4583 13.9166L12.4166 16.2083ZM13.9166 8.54163L16.2083 7.58325C15.875 6.70825 15.3784 5.94092 14.7188 5.28125C14.059 4.62146 13.2916 4.125 12.4166 3.79163L11.4583 6.125C12.0277 6.33325 12.5208 6.64929 12.9375 7.07288C13.3541 7.49646 13.6805 7.98608 13.9166 8.54163Z" fill="#1C1B1F" fill-opacity="1.000000" fill-rule="nonzero"/>
	</g>
</svg>
