<svg width="47.164185" height="47.164185" viewBox="0 0 47.1642 47.1642" fill="none" xmlns="http://www.w3.org/2000/svg" xmlns:xlink="http://www.w3.org/1999/xlink">
	<desc>
			Created with Pixso.
	</desc>
	<defs>
		<clipPath id="clip394_5137">
			<rect id="Layer_1" width="40.000000" height="26.700176" transform="translate(18.879883 0.000000) rotate(45.000000)" fill="white" fill-opacity="0"/>
		</clipPath>
	</defs>
	<rect id="Layer_1" width="40.000000" height="26.700176" transform="translate(18.879883 0.000000) rotate(45.000000)" fill="#FFFFFF" fill-opacity="0"/>
	<g clip-path="url(#clip394_5137)">
		<path id="Vector" d="M16.1133 2.74524C16.3272 2.61694 16.5411 2.48853 16.7551 2.37231C17.5991 1.91797 18.5671 1.74805 19.5154 1.88794C20.4637 2.02783 21.3415 2.46997 22.0183 3.14868C22.4584 3.58887 22.9047 4.03503 23.3448 4.47522L43.8351 24.9656C44.551 25.6036 45.0427 26.455 45.2375 27.3939C45.4324 28.3329 45.32 29.3096 44.9171 30.1798C44.7635 30.5406 44.5508 30.8733 44.2875 31.1641C42.8999 32.5516 41.5123 33.9392 40.1002 35.3513C39.7165 34.9883 39.2548 34.718 38.7504 34.5612C38.246 34.4044 37.7123 34.3652 37.1904 34.4467C36.4595 34.5526 35.7889 34.9117 35.2955 35.4614C34.1279 36.739 34.1157 38.3406 35.3505 40.1133L31.585 43.8788C31.1674 44.3346 30.6595 44.6985 30.0936 44.9473C29.5276 45.1959 28.9161 45.3241 28.2979 45.3236C27.6797 45.323 27.0685 45.1937 26.503 44.9438C25.9376 44.6941 25.4303 44.3292 25.0136 43.8727L3.4046 22.2637C2.54456 21.5328 1.99414 20.5026 1.86481 19.3813C1.73541 18.2601 2.03674 17.1317 2.7077 16.2241C2.7254 16.1895 2.73773 16.1525 2.74438 16.1141L7.02344 11.8351L7.36572 12.0918C7.95514 12.5513 8.68292 12.7971 9.43018 12.7894C10.1774 12.7816 10.9 12.5206 11.4797 12.0491C12.0538 11.6007 12.4626 10.9744 12.6418 10.2684C12.8211 9.56238 12.7606 8.81689 12.47 8.14905C12.2798 7.76575 12.0569 7.39966 11.8037 7.05481L16.1133 2.74524ZM17.2686 29.8436L24.9219 37.4969C25.1337 37.7697 25.4047 37.9906 25.7145 38.1429C26.0243 38.2953 26.3647 38.375 26.71 38.3762C27.0552 38.3773 27.3962 38.2999 27.7071 38.1497C28.0179 37.9995 28.2905 37.7804 28.504 37.5092L37.5083 28.5049C37.7795 28.2914 37.9986 28.0188 38.1488 27.7079C38.2991 27.3971 38.3765 27.0562 38.3754 26.7108C38.3741 26.3656 38.2944 26.0251 38.142 25.7153C37.9897 25.4055 37.7688 25.1345 37.4961 24.9227C32.402 19.8287 27.308 14.7346 22.2139 9.64062C22.0016 9.36938 21.7305 9.1499 21.421 8.99878C21.1116 8.84766 20.7718 8.76892 20.4274 8.76831C20.0829 8.7677 19.7429 8.84534 19.4329 8.99536C19.1229 9.14551 18.8511 9.36401 18.6379 9.63452L9.63361 18.6387C9.36383 18.8533 9.14618 19.1262 8.99695 19.4369C8.84766 19.7476 8.77075 20.0881 8.77197 20.4327C8.77313 20.7775 8.85236 21.1174 9.00372 21.4271C9.15509 21.7368 9.37457 22.0082 9.64581 22.2208L17.2686 29.8436Z" fill="#0D3450" fill-opacity="1.000000" fill-rule="nonzero"/>
		<path id="Vector" d="M36.1268 26.7445L26.7558 36.1155L11.0518 20.4116L20.4229 11.0405L36.1268 26.7445Z" fill="#E63F3F" fill-opacity="1.000000" fill-rule="nonzero"/>
	</g>
</svg>
