<svg width="40.000000" height="40.000000" viewBox="0 0 40 40" fill="none" xmlns="http://www.w3.org/2000/svg" xmlns:xlink="http://www.w3.org/1999/xlink">
	<desc>
			Created with Pixso.
	</desc>
	<defs/>
	<rect id="Layer_1" width="40.000000" height="40.000000" fill="#FFFFFF" fill-opacity="0"/>
	<path id="Vector" d="M19.9578 38.5005L7.38208 38.5005C6.76636 38.5098 6.15491 38.3977 5.58374 38.171C5.0127 37.9443 4.49329 37.6075 4.0564 37.1807C3.61938 36.7537 3.27356 36.245 3.03918 35.6846C2.80493 35.1241 2.68677 34.5233 2.69177 33.9174C2.69177 31.282 2.69177 28.6512 2.69177 26.016C2.68872 25.8212 2.72888 25.6279 2.80933 25.4498C2.88965 25.2719 3.00854 25.113 3.15759 24.9847C8.60706 19.6133 14.0565 14.2433 19.506 8.87488C19.9717 8.4165 19.9717 8.4165 20.4375 8.87488C25.8715 14.2402 31.3209 19.6041 36.7859 24.9664C36.9352 25.0946 37.0542 25.2532 37.1346 25.4314C37.2151 25.6095 37.255 25.8027 37.2517 25.9976C37.2517 28.6329 37.2517 31.2637 37.2517 33.899C37.2567 34.505 37.1385 35.1058 36.9043 35.6663C36.6699 36.2266 36.3241 36.7352 35.8871 37.1622C35.4502 37.5892 34.9308 37.926 34.3597 38.1527C33.7886 38.3794 33.1771 38.4913 32.5614 38.4822L19.9578 38.5005ZM15.2675 29.2379C15.2675 30.567 15.2675 31.8961 15.2675 33.2253C15.2775 33.5114 15.3086 33.7963 15.3606 34.0778C15.4032 34.4363 15.579 34.7665 15.8541 35.0051C16.1293 35.2438 16.4844 35.3738 16.8511 35.3702C18.9285 35.3702 21.0073 35.3702 23.0878 35.3702C23.4498 35.3741 23.8009 35.2471 24.074 35.0129C24.347 34.7789 24.5232 34.4542 24.5688 34.1007C24.6185 33.8438 24.645 33.583 24.6481 33.3215C24.6481 30.5991 24.6481 27.8752 24.6481 25.1498C24.6456 24.8766 24.6129 24.6046 24.5502 24.3385C24.4904 24 24.3068 23.6947 24.0338 23.4802C23.761 23.2657 23.4178 23.157 23.0691 23.1744C20.9871 23.1744 18.9098 23.1744 16.8278 23.1744C16.4825 23.1527 16.1412 23.2579 15.8702 23.4696C15.5992 23.6813 15.4176 23.9844 15.3606 24.3202C15.2931 24.6118 15.2604 24.9102 15.2628 25.2094C15.2582 26.5522 15.2675 27.895 15.2675 29.2379Z" fill="#0D3450" fill-opacity="1.000000" fill-rule="nonzero"/>
	<path id="Vector" d="M29.3337 10.2635C29.3337 10.0848 29.3617 9.90613 29.3617 9.73193C29.3617 7.59155 29.3617 5.45581 29.3617 3.31543C29.3337 2.11926 29.9207 1.53723 31.1316 1.50049C31.5554 1.50049 31.9794 1.50049 32.4032 1.50049C32.6179 1.49133 32.8323 1.52441 33.0338 1.59802C33.2354 1.67163 33.4198 1.78406 33.5765 1.92883C33.7332 2.07361 33.8589 2.24768 33.946 2.44104C34.0333 2.63428 34.0804 2.84277 34.0846 3.0542C34.0962 3.27563 34.0962 3.49744 34.0846 3.71875C34.0846 7.31653 34.0846 10.9144 34.0846 14.5122C34.0765 14.7185 34.1141 14.924 34.1945 15.1146C34.2749 15.3053 34.3962 15.4766 34.5503 15.6167C36.2085 17.2056 37.8527 18.8173 39.4828 20.452C39.6635 20.6168 39.8027 20.8207 39.8898 21.0475C39.9767 21.2743 40.0092 21.5178 39.9843 21.759C39.9595 22.0002 39.8781 22.2324 39.7467 22.4375C39.6152 22.6426 39.4371 22.8147 39.2267 22.9407C38.9343 23.1136 38.5936 23.1909 38.2538 23.1613C37.9141 23.1316 37.5925 22.9966 37.3357 22.7756C37.2052 22.6656 37.0887 22.5419 36.9677 22.4227L20.4843 6.21667C20.3817 6.11584 20.2932 5.97827 20.1675 5.92786C20.0175 5.87183 19.8518 5.87183 19.7018 5.92786C19.5759 5.97375 19.4874 6.11584 19.3804 6.21667L2.89685 22.4778C2.73474 22.6671 2.53308 22.8198 2.30566 22.9258C2.07825 23.0317 1.83032 23.0884 1.57874 23.0919C1.28833 23.1101 0.999146 23.0409 0.749512 22.8936C0.5 22.7462 0.30188 22.5277 0.181519 22.267C0.0396729 21.9906 -0.0172119 21.6797 0.0174561 21.3721C0.0522461 21.0645 0.177124 20.7734 0.377075 20.5344C0.479614 20.4159 0.588501 20.3027 0.703125 20.1953L18.5885 2.58215C19.52 1.66553 20.3864 1.66553 21.3319 2.58215L28.8354 9.9657C28.9518 10.0802 29.0776 10.1902 29.2034 10.3048L29.3337 10.2635Z" fill="#E63F3F" fill-opacity="1.000000" fill-rule="nonzero"/>
</svg>
