<svg width="39.996826" height="36.196655" viewBox="0 0 39.9968 36.1967" fill="none" xmlns="http://www.w3.org/2000/svg" xmlns:xlink="http://www.w3.org/1999/xlink">
	<desc>
			Created with Pixso.
	</desc>
	<defs>
		<clipPath id="clip394_5148">
			<rect id="Layer_1" width="39.996841" height="36.196655" fill="white" fill-opacity="0"/>
		</clipPath>
	</defs>
	<rect id="Layer_1" width="39.996841" height="36.196655" fill="#FFFFFF" fill-opacity="0"/>
	<g clip-path="url(#clip394_5148)">
		<path id="Vector" d="M20.0026 32.601C22.4736 31.2423 25.1888 30.3856 27.9921 30.0803C30.7954 29.7749 33.6314 30.0269 36.337 30.8217L36.337 6.33936C36.4585 6.36169 36.5786 6.39099 36.6968 6.42688C37.6691 6.92273 38.7094 7.39917 39.6914 7.92419C39.7757 7.98706 39.8454 8.06738 39.8958 8.15967C39.9461 8.25195 39.9759 8.35413 39.9831 8.45898C39.9831 17.1188 39.9831 25.7787 39.9831 34.4386C40.0149 34.6257 39.9912 34.8181 39.915 34.9919C39.8387 35.1658 39.7133 35.3136 39.5541 35.417C39.3948 35.5204 39.2089 35.5748 39.019 35.5737C38.8292 35.5726 38.6438 35.516 38.4858 35.4109C34.5528 33.5204 30.0867 33.0497 25.846 34.0789C23.8691 34.4794 21.9644 35.1776 20.197 36.1498C20.1351 36.1807 20.0668 36.1967 19.9977 36.1967C19.9285 36.1967 19.8603 36.1807 19.7983 36.1498C17.655 34.7483 15.1948 33.9059 12.6423 33.6996C8.83179 33.286 4.9801 33.9039 1.49011 35.4886C0.585938 35.8872 0.0122681 35.4886 0.0122681 34.5164C0.00579834 25.837 0.00256348 17.1771 0.00256348 8.53674C-0.0088501 8.40454 0.0181274 8.27185 0.0802002 8.15466C0.142273 8.03735 0.236877 7.94055 0.352539 7.87561C2.06848 6.75366 4.01044 6.02332 6.04047 5.73657C9.46307 5.12646 12.9804 5.31616 16.3176 6.29077C17.5035 6.64136 18.6284 7.17261 19.6525 7.86584C19.7716 7.93274 19.8688 8.03247 19.9327 8.1532C19.9965 8.27393 20.0241 8.4104 20.0123 8.54651C20.0123 16.3832 20.0123 24.2198 20.0123 32.0564L20.0026 32.601Z" fill="#0D3450" fill-opacity="1.000000" fill-rule="nonzero"/>
		<path id="Vector" d="M23.6487 28.0797L23.6487 27.5449C23.6487 21.2251 23.6487 14.9084 23.6487 8.59509C23.6368 8.44165 23.6614 8.28772 23.7205 8.14575C23.7797 8.00378 23.8717 7.87781 23.989 7.77832C26.7957 5.28271 29.5926 2.77429 32.3798 0.252808L32.691 0C32.691 0.194458 32.691 0.320801 32.691 0.457031C32.691 6.8158 32.691 13.1746 32.691 19.5333C32.686 19.7629 32.5999 19.9834 32.4479 20.1555C29.5894 22.7483 26.7244 25.3411 23.8528 27.9338L23.6487 28.0797Z" fill="#E63F3F" fill-opacity="1.000000" fill-rule="nonzero"/>
	</g>
</svg>
