<svg width="40.038940" height="39.996460" viewBox="0 0 40.0389 39.9965" fill="none" xmlns="http://www.w3.org/2000/svg" xmlns:xlink="http://www.w3.org/1999/xlink">
	<desc>
			Created with Pixso.
	</desc>
	<defs/>
	<path id="Vector" d="M24.4209 12.22C24.3337 19.016 19.0358 24.375 12.2588 24.3987C5.41528 24.4225 0.00878906 19.0747 0 12.2152C-0.00866699 5.401 5.28601 0.0174561 12.1819 0C19.0049 -0.0174561 24.3376 5.33362 24.4209 12.22ZM8.33533 4.32068C6.09924 4.32068 4.37219 6.06995 4.30798 8.2782C4.25171 10.2844 6.00415 12.3135 8.31787 12.3143C10.4619 12.3143 12.3096 10.4746 12.3167 8.33142C12.3239 6.1366 10.5221 4.32141 8.33533 4.32068Z" fill="#0D3450" fill-opacity="1.000000" fill-rule="nonzero"/>
	<path id="Vector" d="M25.5813 17.8341C25.735 17.9673 25.8571 18.0608 25.9648 18.1686C30.4131 22.6136 34.8582 27.0624 39.3 31.5149C39.5299 31.7455 39.7487 32.0697 39.8018 32.3804C40.1332 34.3081 40.1632 36.2334 39.5934 38.1333C39.3715 38.8744 38.907 39.3896 38.1532 39.5696C37.4128 39.7471 36.6598 39.9349 35.9044 39.9778C34.9485 40.0316 33.9832 39.9564 33.0225 39.912C32.3701 39.8827 31.7788 39.6869 31.3579 39.1392C31.1115 38.8221 30.7802 38.7223 30.3822 38.7302C29.4857 38.7468 28.5892 38.7412 27.692 38.7302C26.7115 38.7198 26.1987 38.2268 26.1758 37.2479C26.1552 36.4045 26.171 35.5604 26.167 34.7163C26.167 34.125 26.106 34.0687 25.5012 34.0664C24.6967 34.0664 23.8922 34.0726 23.0885 34.0616C21.9915 34.0474 21.5032 33.5496 21.5032 32.447C21.4984 31.6163 21.5032 30.7825 21.4993 29.955C21.4952 29.4794 21.4152 29.4001 20.9396 29.4001C20.1351 29.3931 19.3306 29.4001 18.5269 29.3947C17.2943 29.3795 16.837 28.9127 16.8339 27.6825C16.8339 27.2339 16.8409 26.7853 16.8339 26.3351C16.8282 26.0338 16.9417 25.8459 17.2357 25.7358C18.9453 25.0953 20.4957 24.1886 21.8369 22.941C22.1453 22.6541 22.3378 22.834 22.5614 23.0575C26.3322 26.8411 30.1061 30.6195 33.8833 34.3929C34.0371 34.556 34.2032 34.707 34.3802 34.8447C34.9296 35.241 35.7277 35.1713 36.151 34.7004C36.6337 34.1599 36.6266 33.479 36.1208 32.9147C36.0162 32.7965 35.9012 32.6871 35.7887 32.5754L24.3749 21.1616C23.908 20.6947 23.9238 20.7026 24.2671 20.1311C24.6349 19.5225 24.9694 18.8938 25.3188 18.2748C25.3958 18.1464 25.4767 18.0156 25.5813 17.8341Z" fill="#E63F3F" fill-opacity="1.000000" fill-rule="nonzero"/>
</svg>
