<svg width="23.029663" height="40.000000" viewBox="0 0 23.0297 40" fill="none" xmlns="http://www.w3.org/2000/svg" xmlns:xlink="http://www.w3.org/1999/xlink">
	<desc>
			Created with Pixso.
	</desc>
	<defs>
		<clipPath id="clip394_5123">
			<rect id="Layer_1" width="23.029661" height="40.000000" fill="white" fill-opacity="0"/>
		</clipPath>
	</defs>
	<rect id="Layer_1" width="23.029661" height="40.000000" fill="#FFFFFF" fill-opacity="0"/>
	<g clip-path="url(#clip394_5123)">
		<path id="Vector" d="M7.46075 4.82727L7.46075 9.02661C7.44135 9.21069 7.47864 9.39624 7.56769 9.55847C7.65674 9.72083 7.79321 9.85193 7.95886 9.93445C8.08698 10.0022 8.22961 10.0375 8.37445 10.0375C8.51935 10.0375 8.66199 10.0021 8.79004 9.93433C8.91803 9.86658 9.02759 9.76855 9.10913 9.6488C9.19061 9.52905 9.24164 9.39124 9.25775 9.24719C9.26721 9.07715 9.26721 8.90662 9.25775 8.73657L9.25775 0.766846C9.25775 0.13623 9.25775 0.0921631 9.9198 0.13623C10.3864 0.18042 10.853 0.237183 11.3259 0.275024C11.388 0.273682 11.4497 0.285645 11.5068 0.310181C11.564 0.334839 11.6152 0.371338 11.657 0.417236C11.6989 0.463257 11.7303 0.5177 11.7493 0.576904C11.7683 0.636108 11.7744 0.69873 11.7672 0.760498C11.8429 2.79492 11.9227 4.83362 12.0068 6.87646C12.051 8.13757 12.114 9.4364 12.1518 10.7163C12.1896 12.1035 12.1518 13.4969 11.2439 14.6444C10.8137 15.1512 10.3319 15.6119 9.80627 16.019C9.36493 16.3846 8.86053 16.6495 8.39392 17.0089C8.12579 17.1884 7.9176 17.4441 7.7962 17.743C7.67487 18.042 7.64587 18.3705 7.71295 18.686C8.05347 21.1324 8.37292 23.5852 8.67139 26.0442C9.00555 28.3508 9.14471 30.6815 9.08752 33.0115C9.11511 34.7211 8.86816 36.4242 8.35608 38.0555C8.18286 38.5052 7.94958 38.9294 7.66254 39.3167C7.4281 39.5625 7.1402 39.7511 6.82111 39.8677C6.50201 39.9844 6.1604 40.0261 5.82263 39.9895C5.48486 39.9529 5.1601 39.8391 4.87341 39.6567C4.58673 39.4745 4.34589 39.2286 4.16949 38.9382C3.7019 38.0123 3.41107 37.0074 3.31195 35.9749C3.00916 33.7024 2.97107 31.4025 3.19849 29.1211C3.56415 25.8046 3.96143 22.4944 4.34601 19.1779C4.34601 19.077 4.34601 18.9698 4.38385 18.8689C4.46851 18.4421 4.41077 17.9995 4.21936 17.6088C4.02802 17.218 3.71362 16.901 3.32458 16.7063C2.61536 16.2642 1.94836 15.7576 1.33215 15.193C0.897339 14.7937 0.553467 14.3054 0.323914 13.7615C0.0943604 13.2175 -0.0155029 12.6306 0.00177002 12.0404C0.00177002 9.51831 0.0837402 6.99634 0.159363 4.51208C0.209839 3.25732 0.317017 2.03418 0.380066 0.804565C0.373596 0.735962 0.382019 0.666626 0.404846 0.60144C0.427612 0.536255 0.464233 0.476807 0.512146 0.427124C0.560059 0.377441 0.618103 0.338745 0.682373 0.313477C0.746643 0.28833 0.815552 0.277344 0.88446 0.28125C1.37628 0.243408 1.90594 0.205688 2.36621 0.142578C2.72559 0.0983887 2.82648 0.256104 2.82648 0.583984C2.82648 1.84497 2.82648 3.10596 2.82648 4.31665C2.82648 5.78564 2.82648 7.24854 2.82648 8.73022C2.82648 9.53101 3.17328 9.99121 3.77228 9.99121C4.37122 9.99121 4.71173 9.51831 4.71173 8.73022C4.71173 6.05688 4.71173 3.38977 4.71173 0.716309C4.71802 0.041748 4.76215 -0.00244141 5.40527 -0.00244141L6.81763 -0.00244141C7.39771 -0.00244141 7.44818 0.0606689 7.44818 0.628052L7.44818 4.82727L7.46075 4.82727Z" fill="#0D3450" fill-opacity="1.000000" fill-rule="nonzero"/>
		<path id="Vector" d="M13.9866 31.5236C13.8038 28.2007 14.3776 24.9283 14.7937 21.6497C14.9766 20.2246 15.0585 18.7871 15.1594 17.3495C15.2729 15.7985 15.3611 14.2473 15.4557 12.6963C15.4557 12.463 15.4557 12.2234 15.4557 11.9901L15.4557 0.886719C15.4557 0.256226 15.4557 0.199463 16.1367 0.256226C17.2713 0.258423 18.3826 0.577759 19.3453 1.17834C20.3079 1.77893 21.0835 2.6366 21.5844 3.65466C22.4223 5.34924 22.8806 7.20618 22.9274 9.09607C22.9841 10.1174 22.9652 11.1389 23.0156 12.1541C23.0806 13.2764 22.9198 14.4003 22.543 15.4595C22.1661 16.5186 21.5807 17.4915 20.8214 18.3206C20.3549 18.8501 19.9261 19.4113 19.4785 19.9535C18.955 20.5643 18.6085 21.3065 18.4762 22.1C18.3439 22.8934 18.4311 23.7079 18.7281 24.4554C19.2764 25.9714 19.6364 27.5491 19.8 29.1528C19.8704 30.1179 19.8873 31.0862 19.8504 32.0532C19.7811 33.6421 19.7054 35.2057 19.5226 36.8198C19.3901 37.5643 19.1634 38.2889 18.8479 38.9762C18.7169 39.2739 18.5011 39.5265 18.2275 39.7025C17.954 39.8785 17.6347 39.9702 17.3094 39.9662C16.3889 40.0417 15.4999 39.9662 14.9639 39.0708C14.7208 38.6831 14.5459 38.2566 14.4469 37.8098C14.2327 36.8263 14.0811 35.8302 13.9929 34.8274C13.9299 33.724 13.9866 32.608 13.9866 31.5236Z" fill="#E63F3F" fill-opacity="1.000000" fill-rule="nonzero"/>
	</g>
</svg>
