<svg width="40.000000" height="40.000000" viewBox="0 0 40 40" fill="none" xmlns="http://www.w3.org/2000/svg" xmlns:xlink="http://www.w3.org/1999/xlink">
	<desc>
			Created with Pixso.
	</desc>
	<defs>
		<clipPath id="clip394_5113">
			<rect id="Layer_1" width="40.000000" height="40.000000" fill="white" fill-opacity="0"/>
		</clipPath>
	</defs>
	<rect id="Layer_1" width="40.000000" height="40.000000" fill="#FFFFFF" fill-opacity="0"/>
	<g clip-path="url(#clip394_5113)">
		<path id="Vector" d="M10.5057 27.9081L6.0968 2.94092L0 2.94092L0 0.0333252C0.133301 0.0250244 0.264893 0.00830078 0.396606 0C2.97095 0 5.54529 0 8.11963 0C8.43127 0 8.56958 0.0566406 8.61951 0.404907C8.80615 1.63123 9.03943 2.84924 9.25598 4.07068C9.27429 4.17566 9.31104 4.27563 9.35266 4.42395L40 4.42395C38.8236 10.3308 37.6572 16.1743 36.4742 22.0544L12.4436 22.0544C12.6102 23.0542 12.7769 24.009 12.9568 25.0021L36.7058 25.0021L36.7058 27.9081L10.5057 27.9081Z" fill="#0D3450" fill-opacity="1.000000" fill-rule="nonzero"/>
		<path id="Vector" d="M13.2333 38.0771C12.3778 38.0824 11.5399 37.8337 10.8258 37.3624C10.1117 36.8911 9.55359 36.2185 9.22205 35.4298C8.8905 34.6411 8.80054 33.7717 8.9635 32.9318C9.12646 32.0919 9.53503 31.3192 10.1375 30.7117C10.7397 30.1041 11.5089 29.6891 12.3474 29.519C13.1859 29.3489 14.056 29.4315 14.8475 29.7563C15.639 30.0812 16.3164 30.6335 16.7937 31.3436C17.271 32.0536 17.5269 32.8894 17.5289 33.7449C17.5264 34.8868 17.0741 35.9817 16.2701 36.7925C15.4661 37.6034 14.3751 38.0649 13.2333 38.0771Z" fill="#E63F3F" fill-opacity="1.000000" fill-rule="nonzero"/>
		<path id="Vector" d="M33.8248 38.0771C32.9694 38.0824 32.1315 37.8337 31.4174 37.3624C30.7032 36.8911 30.1451 36.2185 29.8136 35.4298C29.4821 34.6411 29.3921 33.7717 29.5551 32.9318C29.718 32.0919 30.1266 31.3192 30.729 30.7117C31.3313 30.1041 32.1005 29.6891 32.939 29.519C33.7775 29.3489 34.6476 29.4315 35.4391 29.7563C36.2306 30.0812 36.908 30.6335 37.3853 31.3436C37.8625 32.0536 38.1184 32.8894 38.1205 33.7449C38.1179 34.8868 37.6656 35.9817 36.8617 36.7925C36.0576 37.6034 34.9667 38.0649 33.8248 38.0771Z" fill="#E63F3F" fill-opacity="1.000000" fill-rule="nonzero"/>
	</g>
</svg>
