<svg width="40.083252" height="40.010376" viewBox="0 0 40.0833 40.0104" fill="none" xmlns="http://www.w3.org/2000/svg" xmlns:xlink="http://www.w3.org/1999/xlink">
	<desc>
			Created with Pixso.
	</desc>
	<defs/>
	<path id="Vector" d="M0 25.1151C1.17017 24.9312 2.34033 24.7574 3.50537 24.5531C3.58325 24.5282 3.65491 24.4871 3.7157 24.4325C3.77649 24.3778 3.82495 24.311 3.85791 24.2362C4.1543 23.5669 4.44556 22.8923 4.6908 22.1923C4.74524 21.9772 4.71216 21.7494 4.59888 21.5587C4.047 20.724 3.47644 19.9048 2.88708 19.1008C2.83508 19.0519 2.79468 18.9918 2.76917 18.925C2.74353 18.8584 2.73328 18.7867 2.73914 18.7156C2.74512 18.6444 2.76697 18.5754 2.80322 18.5138C2.83936 18.4523 2.88904 18.3997 2.94836 18.3599C3.5105 17.8182 4.06067 17.2629 4.59888 16.6941C4.64075 16.6271 4.69763 16.5707 4.76514 16.5293C4.83252 16.488 4.90857 16.4629 4.9873 16.4561C5.06604 16.4491 5.14539 16.4604 5.21887 16.4894C5.29248 16.5183 5.3584 16.5638 5.41138 16.6226C6.1676 17.1897 6.94434 17.7161 7.71594 18.2832C7.85425 18.4075 8.03064 18.4811 8.21619 18.4922C8.40173 18.5034 8.58569 18.4513 8.73792 18.3446C9.25574 18.0858 9.79407 17.8705 10.3474 17.7007C10.4935 17.6647 10.6249 17.5846 10.7236 17.4712C10.8224 17.3578 10.8837 17.2167 10.8993 17.0671C11.0424 16.1218 11.2162 15.1764 11.3541 14.226C11.3567 14.1498 11.3756 14.075 11.4094 14.0066C11.4432 13.9382 11.4912 13.8778 11.5502 13.8295C11.6093 13.7811 11.6779 13.7458 11.7515 13.7262C11.8252 13.7064 11.9022 13.7026 11.9775 13.715C12.7543 13.715 13.5309 13.715 14.3076 13.715C14.382 13.7014 14.4585 13.7045 14.5315 13.724C14.6045 13.7435 14.6724 13.7789 14.73 13.8279C14.7877 13.8767 14.8339 13.9377 14.865 14.0066C14.8962 14.0754 14.9119 14.1504 14.9105 14.226C15.0638 15.1714 15.2529 16.1116 15.4215 17.062C15.4362 17.2301 15.5039 17.389 15.6151 17.5159C15.7263 17.6427 15.8751 17.7307 16.0398 17.7671C16.6248 17.9678 17.1965 18.205 17.7517 18.4774C17.8613 18.5344 17.9854 18.5576 18.1083 18.5439C18.2311 18.5303 18.347 18.4805 18.4415 18.4008C19.2438 17.8029 20.0664 17.2357 20.8635 16.6328C20.9161 16.5739 20.9817 16.528 21.0551 16.4987C21.1284 16.4694 21.2076 16.4574 21.2864 16.4639C21.3651 16.4703 21.4412 16.4949 21.5088 16.5358C21.5764 16.5765 21.6337 16.6324 21.676 16.6992C22.2433 17.2869 22.8207 17.8591 23.4083 18.4263C23.4563 18.46 23.4963 18.5037 23.5256 18.5543C23.5551 18.6051 23.573 18.6615 23.5784 18.7198C23.5837 18.7782 23.5763 18.837 23.5566 18.8922C23.537 18.9474 23.5055 18.9977 23.4645 19.0396C22.8666 19.8724 22.2892 20.7207 21.6914 21.5536C21.5868 21.6776 21.5248 21.832 21.5146 21.9939C21.5045 22.1559 21.5468 22.3168 21.6351 22.4529C21.9017 22.994 22.1322 23.5522 22.325 24.1238C22.3547 24.2592 22.4266 24.3816 22.5304 24.4734C22.6342 24.5653 22.7644 24.6218 22.9023 24.6348C23.8784 24.7881 24.8492 24.9669 25.8252 25.1151C26.2085 25.1714 26.3771 25.3451 26.3669 25.7334C26.3669 26.5101 26.3669 27.2664 26.3669 28.0583C26.3669 28.457 26.1982 28.6154 25.8202 28.6768C24.8748 28.8248 23.9294 29.0038 22.979 29.152C22.8174 29.1649 22.6641 29.2288 22.541 29.3344C22.418 29.4399 22.3317 29.5818 22.2943 29.7395C22.0977 30.3236 21.8621 30.8937 21.5891 31.4463C21.5217 31.5574 21.4913 31.687 21.5023 31.8165C21.5133 31.946 21.5652 32.0686 21.6505 32.1667C22.2433 32.969 22.8104 33.7968 23.4083 34.5939C23.4686 34.6481 23.516 34.715 23.547 34.7899C23.5779 34.8647 23.5917 34.9456 23.5873 35.0265C23.5829 35.1074 23.5604 35.1863 23.5215 35.2573C23.4825 35.3284 23.4281 35.3898 23.3623 35.437C22.7747 35.9838 22.2125 36.5562 21.6556 37.1335C21.6182 37.1866 21.5695 37.231 21.5131 37.2632C21.4565 37.2955 21.3937 37.3151 21.329 37.3204C21.2642 37.3257 21.199 37.3168 21.1379 37.2942C21.0769 37.2717 21.0217 37.236 20.976 37.1897C20.1227 36.5765 19.2539 35.9889 18.421 35.3757C18.3259 35.2974 18.2084 35.2512 18.0853 35.2438C17.9623 35.2365 17.8401 35.2683 17.7363 35.3348C17.1538 35.6108 16.561 35.8612 15.9581 36.0861C15.6873 36.1882 15.4982 36.3159 15.4471 36.597C15.2529 37.7365 15.0587 38.8708 14.8595 40.0104L11.446 40.0104C11.2571 38.9117 11.0526 37.8182 10.8789 36.7145C10.8638 36.5593 10.8004 36.4128 10.6979 36.2955C10.5952 36.1782 10.4584 36.0961 10.3066 36.0604C9.76587 35.8962 9.24084 35.6842 8.73792 35.4269C8.57361 35.3207 8.37891 35.2717 8.18408 35.2875C7.98914 35.3031 7.80481 35.3827 7.65967 35.5137C6.8728 36.0861 6.06543 36.6226 5.27344 37.1897C5.23193 37.2311 5.18201 37.2628 5.12695 37.283C5.07202 37.303 5.01331 37.3109 4.95496 37.306C4.89661 37.3011 4.84009 37.2837 4.78918 37.2548C4.73828 37.2258 4.69421 37.1863 4.66016 37.1387C4.08789 36.5612 3.52576 35.9991 2.95862 35.4319C2.58044 35.0538 2.58044 34.9924 2.88708 34.5684L4.55798 32.2332C4.65051 32.1396 4.71277 32.0204 4.73645 31.8909C4.76013 31.7615 4.74426 31.6278 4.6908 31.5076C4.40466 30.8739 4.17981 30.225 3.87329 29.5913C3.83374 29.5002 3.77625 29.418 3.70422 29.3495C3.63232 29.281 3.54724 29.2278 3.45422 29.1927C2.30969 28.9629 1.15479 28.7789 0 28.5847L0 25.1151ZM17.6852 26.8883C17.6873 25.9888 17.4221 25.1088 16.9236 24.3601C16.4249 23.6115 15.7153 23.0276 14.8845 22.6826C14.0537 22.3376 13.1393 22.2472 12.257 22.4226C11.3746 22.5979 10.5643 23.0312 9.92859 23.6677C9.29285 24.3042 8.86047 25.115 8.68604 25.9974C8.51172 26.8799 8.60327 27.7943 8.9491 28.6248C9.29504 29.4551 9.87964 30.1641 10.6289 30.6619C11.3782 31.1597 12.2583 31.4237 13.1578 31.4207C13.7537 31.4235 14.344 31.308 14.8948 31.0811C15.4457 30.8542 15.946 30.5204 16.3671 30.0989C16.7881 29.6774 17.1213 29.1766 17.3477 28.6256C17.5739 28.0745 17.6886 27.484 17.6852 26.8883Z" fill="#0D3450" fill-opacity="1.000000" fill-rule="nonzero"/>
	<path id="Vector" d="M24.1901 14.1852C23.3776 14.364 22.6571 14.5071 21.9111 14.6962C21.8422 14.7257 21.7675 14.7397 21.6925 14.7372C21.6174 14.7347 21.5439 14.7157 21.4772 14.6815C21.4103 14.6475 21.3518 14.599 21.3058 14.5397C21.2598 14.4803 21.2274 14.4116 21.2111 14.3384C21.0168 13.8274 20.8125 13.3164 20.5928 12.8054C20.5569 12.7462 20.5348 12.6797 20.528 12.6108C20.5212 12.5419 20.5299 12.4723 20.5533 12.4072C20.5769 12.342 20.6146 12.283 20.6638 12.2344C20.7131 12.1857 20.7726 12.1486 20.838 12.1259C21.4205 11.7886 21.9827 11.4258 22.5601 11.1039C22.7058 11.0272 22.8236 10.9062 22.8961 10.7584C22.9686 10.6106 22.9923 10.4434 22.9637 10.2812C22.9474 9.92151 22.9576 9.56116 22.9944 9.203C23.0181 9.04773 22.9941 8.88892 22.9257 8.74756C22.8573 8.60608 22.7476 8.48877 22.6111 8.41101C22.0031 8.03796 21.4205 7.62915 20.8176 7.26123C20.7581 7.24146 20.704 7.20813 20.6595 7.16382C20.6151 7.11938 20.5818 7.06531 20.5619 7.00586C20.542 6.94629 20.5364 6.88306 20.5453 6.82092C20.5542 6.75879 20.5774 6.69958 20.6132 6.64807C20.838 6.13708 21.068 5.6261 21.2621 5.08447C21.277 5.01526 21.3073 4.95044 21.3506 4.89453C21.394 4.83875 21.4495 4.79346 21.5128 4.76196C21.5762 4.73059 21.6459 4.71387 21.7166 4.71301C21.7872 4.71228 21.8573 4.72742 21.9213 4.75745C22.5958 4.93628 23.2805 5.06909 23.9652 5.23779C24.0961 5.27966 24.2368 5.27893 24.3672 5.23584C24.4976 5.19263 24.6108 5.10925 24.6908 4.99756C24.9701 4.68433 25.2705 4.39062 25.5902 4.11865C25.7015 4.03833 25.785 3.92529 25.829 3.79517C25.873 3.66504 25.8752 3.52454 25.8354 3.39307C25.672 2.7135 25.5442 2.02881 25.3806 1.34912C25.3535 1.28589 25.3407 1.21729 25.3433 1.14844C25.3457 1.07959 25.3635 1.01221 25.3954 0.95105C25.4271 0.889893 25.4722 0.83667 25.527 0.795044C25.5819 0.753418 25.6454 0.724487 25.7128 0.710449C26.2443 0.516235 26.7756 0.291382 27.3071 0.0615234C27.3569 0.0302734 27.413 0.010376 27.4713 0.00305176C27.5297 -0.00415039 27.5889 0.00134277 27.6449 0.0194092C27.7008 0.0373535 27.7522 0.0673828 27.7953 0.1073C27.8385 0.147217 27.8724 0.196167 27.8948 0.250488C28.2576 0.86377 28.6561 1.45142 29.0138 2.06458C29.0809 2.19946 29.1897 2.30908 29.3241 2.37732C29.4585 2.44543 29.6113 2.46838 29.7598 2.44263C30.1782 2.41199 30.5984 2.41199 31.0168 2.44263C31.1332 2.46423 31.2533 2.44739 31.3591 2.3949C31.4651 2.34241 31.5511 2.25696 31.6045 2.15137C31.9622 1.56885 32.3455 0.986328 32.7031 0.38855C32.7279 0.312866 32.77 0.244141 32.826 0.187744C32.8822 0.131226 32.9507 0.088623 33.0261 0.0633545C33.1016 0.0380859 33.1818 0.0307617 33.2606 0.0418701C33.3394 0.0531006 33.4144 0.0825195 33.4799 0.12793C33.9908 0.352783 34.4711 0.557129 34.9719 0.75647C35.0356 0.771851 35.0956 0.800537 35.1475 0.840698C35.1993 0.880981 35.2422 0.931641 35.2731 0.989624C35.304 1.04749 35.3223 1.11133 35.3267 1.17688C35.3312 1.24231 35.3217 1.30798 35.299 1.36963C35.1354 2.07471 34.9872 2.77991 34.8186 3.48511C34.781 3.60278 34.7816 3.72937 34.8201 3.8468C34.8586 3.96423 34.9332 4.06653 35.0332 4.13916C35.3702 4.4408 35.6846 4.76709 35.9734 5.11511C36.0464 5.21619 36.1495 5.29138 36.2679 5.32996C36.3865 5.36853 36.5142 5.36853 36.6326 5.32971C37.3224 5.16626 38.0173 5.02319 38.7072 4.84937C38.7729 4.81958 38.8447 4.80493 38.917 4.80664C38.9891 4.80823 39.0602 4.82629 39.1245 4.85913C39.1888 4.89209 39.2449 4.93909 39.2886 4.99658C39.3322 5.0542 39.3623 5.12097 39.3766 5.19177C39.5657 5.70276 39.7854 6.23926 40.0204 6.75537C40.0488 6.80286 40.0673 6.85571 40.0743 6.91064C40.0815 6.96558 40.0773 7.02136 40.0619 7.07458C40.0466 7.12769 40.0205 7.17725 39.9852 7.21985C39.95 7.26257 39.9062 7.29749 39.8569 7.32263C39.2181 7.72119 38.5947 8.13501 37.9561 8.52344C37.8398 8.58276 37.7458 8.67786 37.6879 8.79468C37.6299 8.91162 37.6111 9.04395 37.6342 9.17236C37.6699 9.59058 37.6699 10.0111 37.6342 10.4293C37.6106 10.5583 37.6299 10.6915 37.6888 10.8087C37.7479 10.9258 37.8435 11.0204 37.9612 11.0784C38.5641 11.4513 39.1569 11.8397 39.77 12.2025C39.8381 12.2266 39.8997 12.266 39.9501 12.3177C40.0004 12.3695 40.0382 12.4321 40.0604 12.5009C40.0826 12.5696 40.0887 12.6425 40.0782 12.7139C40.0677 12.7853 40.041 12.8534 40 12.9127C39.7649 13.4237 39.5452 13.9347 39.3459 14.4457C39.3303 14.5066 39.3019 14.5632 39.2622 14.6119C39.2227 14.6608 39.173 14.7003 39.1167 14.7279C39.0603 14.7556 38.9987 14.7708 38.9359 14.7723C38.8732 14.7739 38.8108 14.7618 38.7532 14.7369C38.0634 14.5786 37.3684 14.4304 36.6786 14.2617C36.5431 14.2124 36.3953 14.2081 36.2572 14.2496C36.1191 14.291 35.998 14.376 35.9121 14.4917C35.6173 14.8282 35.2998 15.144 34.9617 15.437C34.8646 15.5038 34.7914 15.5997 34.7528 15.7109C34.7142 15.8221 34.7122 15.9429 34.7471 16.0553C34.9208 16.7554 35.069 17.4606 35.2581 18.1606C35.2872 18.223 35.3022 18.2911 35.3019 18.36C35.3015 18.429 35.2859 18.4968 35.256 18.559C35.2262 18.6211 35.1829 18.6758 35.1294 18.7191C35.0758 18.7625 35.0133 18.7933 34.9463 18.8096C34.4047 19.0139 33.8682 19.2388 33.3418 19.4688C33.2921 19.501 33.236 19.522 33.1774 19.53C33.1187 19.5382 33.059 19.5332 33.0023 19.5157C32.9458 19.4982 32.8938 19.4684 32.85 19.4285C32.8063 19.3885 32.7717 19.3395 32.7491 19.2848C32.371 18.6665 31.9673 18.0686 31.5891 17.4503C31.5253 17.3281 31.4266 17.2275 31.3057 17.1611C31.1848 17.0948 31.047 17.0657 30.9095 17.0773C30.5007 17.0773 30.0919 17.0773 29.6882 17.0773C29.531 17.0645 29.3733 17.0984 29.2352 17.1748C29.097 17.2511 28.9845 17.3666 28.9116 17.5066C28.554 18.0891 28.1707 18.6562 27.813 19.2388C27.7896 19.2968 27.7538 19.3489 27.7081 19.3915C27.6625 19.4342 27.6082 19.4663 27.5487 19.4858C27.4894 19.5052 27.4265 19.5115 27.3645 19.5042C27.3024 19.4968 27.2427 19.476 27.1896 19.4432C26.6479 19.203 26.1012 18.9833 25.5493 18.7635C25.4921 18.7489 25.4386 18.7223 25.3925 18.6852C25.3464 18.6482 25.3087 18.6018 25.2821 18.549C25.2555 18.4962 25.2405 18.4384 25.2382 18.3793C25.2357 18.3202 25.246 18.2614 25.2683 18.2065C25.442 17.5066 25.5902 16.7963 25.7793 16.0962C25.826 15.9677 25.8289 15.8271 25.7872 15.6968C25.7456 15.5663 25.662 15.4535 25.5493 15.3757C25.2069 15.0947 24.9208 14.7472 24.5938 14.4407C24.4672 14.3434 24.332 14.2579 24.1901 14.1852ZM30.3219 13.2194C31.2399 13.214 32.1185 12.8455 32.7657 12.1945C33.413 11.5435 33.7762 10.6627 33.7761 9.74463C33.7761 8.82446 33.4106 7.94202 32.76 7.29126C32.1093 6.64062 31.2268 6.27502 30.3066 6.27502C29.3864 6.27502 28.5039 6.64062 27.8531 7.29126C27.2025 7.94202 26.837 8.82446 26.837 9.74463C26.8356 10.2026 26.925 10.6564 27.1002 11.0796C27.2753 11.5027 27.5326 11.887 27.8571 12.2101C28.1816 12.5332 28.567 12.7888 28.991 12.962C29.4149 13.1353 29.869 13.2228 30.327 13.2194L30.3219 13.2194Z" fill="#E63F3F" fill-opacity="1.000000" fill-rule="nonzero"/>
</svg>
